<svg width="100px" height="100px" viewBox="0 0 100 100" version="1.1" xmlns="http://www.w3.org/2000/svg" xmlns:xlink="http://www.w3.org/1999/xlink">
    <g id="Page-1" stroke="none" stroke-width="1" fill="none" fill-rule="evenodd">
        <g id="Group-11" transform="translate(-2103.000000, 0.000000)">
            <g id="Group" transform="translate(2103.000000, 0.000000)">
                <polygon id="Path" points="0 0 100 0 100 100 0 100"></polygon>
                <path d="M40,39.5 C40,45.2989899 44.7010101,50 50.5,50 C56.2989899,50 61,45.2989899 61,39.5 C61,33.7010101 56.2989899,29 50.5,29 C44.7010101,29 40,33.7010101 40,39.5" id="Path" stroke="#000000" stroke-width="5.5" stroke-linecap="round" stroke-linejoin="round"></path>
                <line x1="27" y1="52" x2="57" y2="13" id="Path" stroke="#000000" stroke-width="5.5" stroke-linecap="round" stroke-linejoin="round"></line>
                <line x1="42" y1="33" x2="30" y2="22" id="Path" stroke="#000000" stroke-width="5.5" stroke-linecap="round" stroke-linejoin="round"></line>
                <line x1="74" y1="27" x2="39" y2="69" id="Path" stroke="#000000" stroke-width="5.5" stroke-linecap="round" stroke-linejoin="round"></line>
                <path d="M73.0173436,26.0668076 C75.0026729,29.8459656 76.024781,34.0417892 76,38.295946 C76.0168009,42.8828847 74.98122,47.4136949 72.9710754,51.5459154 C70.4526719,55.9814889 67.5102556,60.1673435 64.1843109,64.0458864 C60.8866453,67.9333774 57.9170638,72.0875345 55.309216,76.4625244 C53.9884673,79.0458517 52.920091,81.7541788 52.125118,84.5375057 C51.6161671,86.0375022 50.9599989,87 49.5088578,87 C48.1839029,87 47.5613844,86.4333346 46.8757728,84.5291724 C46.0652555,81.6800847 44.9675196,78.9189735 43.5991383,76.2875248 C41.8105977,73.2492388 39.8106151,70.3380354 37.613707,67.5750449 C33.9248643,62.641723 28.448384,57.0125694 25.6134011,50.6125842 C23.8515658,46.7270132 22.9604419,42.5094537 23.0013471,38.2501128 C22.9713404,32.0651173 25.1731375,26.073018 29.2097073,21.3543185 C34.2165775,15.4122255 41.6322876,11.9843035 49.4457647,12 C52.1797061,11.9904511 54.8994821,12.3893842 57.513268,13.1835041 C64.208532,15.2586032 69.7899249,19.8965307 73.0173436,26.0668076 L73.0173436,26.0668076 Z" id="Path" stroke="#000000" stroke-width="5.5" stroke-linecap="round" stroke-linejoin="round"></path>
            </g>
        </g>
    </g>
</svg>
